<mxfile host="Electron" agent="Mozilla/5.0 (Macintosh; Intel Mac OS X 10_15_7) AppleWebKit/537.36 (KHTML, like Gecko) draw.io/27.0.9 Chrome/134.0.6998.205 Electron/35.4.0 Safari/537.36" version="27.0.9">
  <diagram name="Page-1" id="nhZ4vD28O06Omo82XQmb">
    <mxGraphModel dx="1298" dy="808" grid="1" gridSize="10" guides="1" tooltips="1" connect="1" arrows="1" fold="1" page="1" pageScale="1" pageWidth="850" pageHeight="1100" math="0" shadow="0">
      <root>
        <mxCell id="0" />
        <mxCell id="1" value="containers" style="" parent="0" />
        <mxCell id="komrigK7Vt0HTuFKPwD9-1" value="" style="rounded=0;whiteSpace=wrap;html=1;labelBackgroundColor=none;fillColor=none;" parent="1" vertex="1">
          <mxGeometry x="30" y="100" width="540" height="280" as="geometry" />
        </mxCell>
        <mxCell id="komrigK7Vt0HTuFKPwD9-2" value="&lt;b&gt;CLIENTE&lt;/b&gt;" style="text;html=1;align=center;verticalAlign=middle;whiteSpace=wrap;rounded=0;labelBackgroundColor=none;" parent="1" vertex="1">
          <mxGeometry x="30" y="100" width="90" height="30" as="geometry" />
        </mxCell>
        <mxCell id="komrigK7Vt0HTuFKPwD9-4" value="" style="rounded=0;whiteSpace=wrap;html=1;labelBackgroundColor=none;fillColor=none;" parent="1" vertex="1">
          <mxGeometry x="660" y="100" width="540" height="280" as="geometry" />
        </mxCell>
        <mxCell id="komrigK7Vt0HTuFKPwD9-5" value="&lt;b&gt;SERVIDOR&lt;/b&gt;" style="text;html=1;align=center;verticalAlign=middle;whiteSpace=wrap;rounded=0;labelBackgroundColor=none;" parent="1" vertex="1">
          <mxGeometry x="660" y="100" width="90" height="30" as="geometry" />
        </mxCell>
        <mxCell id="komrigK7Vt0HTuFKPwD9-6" value="" style="rounded=0;whiteSpace=wrap;html=1;labelBackgroundColor=none;fillColor=none;" parent="1" vertex="1">
          <mxGeometry x="660" y="440" width="610" height="480" as="geometry" />
        </mxCell>
        <mxCell id="komrigK7Vt0HTuFKPwD9-7" value="&lt;b&gt;SERVICIOS (Dockerizados)&lt;/b&gt;" style="text;html=1;align=center;verticalAlign=middle;whiteSpace=wrap;rounded=0;labelBackgroundColor=none;" parent="1" vertex="1">
          <mxGeometry x="660" y="890" width="180" height="30" as="geometry" />
        </mxCell>
        <mxCell id="komrigK7Vt0HTuFKPwD9-9" value="" style="rounded=0;whiteSpace=wrap;html=1;labelBackgroundColor=none;fillColor=none;" parent="1" vertex="1">
          <mxGeometry x="1310" y="440" width="540" height="340" as="geometry" />
        </mxCell>
        <mxCell id="komrigK7Vt0HTuFKPwD9-10" value="&lt;b&gt;INTEGRACIONES&lt;/b&gt;" style="text;html=1;align=center;verticalAlign=middle;whiteSpace=wrap;rounded=0;labelBackgroundColor=none;" parent="1" vertex="1">
          <mxGeometry x="1310" y="440" width="120" height="30" as="geometry" />
        </mxCell>
        <mxCell id="tRZuRNDx-DWkK2Ab4mDl-18" value="" style="rounded=0;whiteSpace=wrap;html=1;labelBackgroundColor=none;fillColor=none;" parent="1" vertex="1">
          <mxGeometry x="1310" y="80" width="530" height="300" as="geometry" />
        </mxCell>
        <mxCell id="tRZuRNDx-DWkK2Ab4mDl-19" value="&lt;b&gt;SERVIDOR BOT (Dockerizado)&lt;/b&gt;" style="text;html=1;align=center;verticalAlign=middle;whiteSpace=wrap;rounded=0;labelBackgroundColor=none;" parent="1" vertex="1">
          <mxGeometry x="1310" y="80" width="180" height="30" as="geometry" />
        </mxCell>
        <mxCell id="tRZuRNDx-DWkK2Ab4mDl-50" value="" style="rounded=0;whiteSpace=wrap;html=1;labelBackgroundColor=none;fillColor=none;" parent="1" vertex="1">
          <mxGeometry x="1920" y="440" width="330" height="300" as="geometry" />
        </mxCell>
        <mxCell id="tRZuRNDx-DWkK2Ab4mDl-51" value="&lt;b&gt;BOT (Dockerizado)&lt;/b&gt;" style="text;html=1;align=center;verticalAlign=middle;whiteSpace=wrap;rounded=0;labelBackgroundColor=none;" parent="1" vertex="1">
          <mxGeometry x="1920" y="440" width="130" height="30" as="geometry" />
        </mxCell>
        <mxCell id="z1FZ_uWKLZuKiR85j3LB-3" style="edgeStyle=orthogonalEdgeStyle;rounded=0;orthogonalLoop=1;jettySize=auto;html=1;exitX=0.042;exitY=1;exitDx=0;exitDy=0;entryX=1;entryY=0.25;entryDx=0;entryDy=0;exitPerimeter=0;" parent="1" source="tRZuRNDx-DWkK2Ab4mDl-73" target="z1FZ_uWKLZuKiR85j3LB-14" edge="1">
          <mxGeometry relative="1" as="geometry">
            <mxPoint x="890" y="310" as="targetPoint" />
          </mxGeometry>
        </mxCell>
        <mxCell id="z1FZ_uWKLZuKiR85j3LB-4" style="edgeStyle=orthogonalEdgeStyle;rounded=0;orthogonalLoop=1;jettySize=auto;html=1;entryX=0.15;entryY=1;entryDx=0;entryDy=0;entryPerimeter=0;" parent="1" source="z1FZ_uWKLZuKiR85j3LB-14" target="tRZuRNDx-DWkK2Ab4mDl-73" edge="1">
          <mxGeometry relative="1" as="geometry">
            <mxPoint x="850" y="340" as="sourcePoint" />
          </mxGeometry>
        </mxCell>
        <mxCell id="z1FZ_uWKLZuKiR85j3LB-29" value="" style="rounded=0;whiteSpace=wrap;html=1;fillColor=none;dashed=1;" parent="1" vertex="1">
          <mxGeometry x="870" y="790" width="390" height="120" as="geometry" />
        </mxCell>
        <mxCell id="z1FZ_uWKLZuKiR85j3LB-38" style="edgeStyle=orthogonalEdgeStyle;rounded=0;orthogonalLoop=1;jettySize=auto;html=1;exitX=0.5;exitY=0;exitDx=0;exitDy=0;entryX=0.75;entryY=1;entryDx=0;entryDy=0;" parent="1" source="z1FZ_uWKLZuKiR85j3LB-36" target="tRZuRNDx-DWkK2Ab4mDl-73" edge="1">
          <mxGeometry relative="1" as="geometry" />
        </mxCell>
        <mxCell id="z1FZ_uWKLZuKiR85j3LB-36" value="" style="rounded=0;whiteSpace=wrap;html=1;fillColor=none;dashed=1;" parent="1" vertex="1">
          <mxGeometry x="890" y="450" width="370" height="260" as="geometry" />
        </mxCell>
        <mxCell id="z1FZ_uWKLZuKiR85j3LB-37" style="edgeStyle=orthogonalEdgeStyle;rounded=0;orthogonalLoop=1;jettySize=auto;html=1;exitX=0.5;exitY=1;exitDx=0;exitDy=0;" parent="1" source="tRZuRNDx-DWkK2Ab4mDl-73" edge="1">
          <mxGeometry relative="1" as="geometry">
            <mxPoint x="1068" y="450" as="targetPoint" />
          </mxGeometry>
        </mxCell>
        <mxCell id="z1FZ_uWKLZuKiR85j3LB-48" style="edgeStyle=orthogonalEdgeStyle;rounded=0;orthogonalLoop=1;jettySize=auto;html=1;exitX=0.5;exitY=0;exitDx=0;exitDy=0;entryX=0.478;entryY=1.004;entryDx=0;entryDy=0;entryPerimeter=0;" parent="1" source="z1FZ_uWKLZuKiR85j3LB-29" target="z1FZ_uWKLZuKiR85j3LB-36" edge="1">
          <mxGeometry relative="1" as="geometry" />
        </mxCell>
        <mxCell id="z1FZ_uWKLZuKiR85j3LB-49" style="edgeStyle=orthogonalEdgeStyle;rounded=0;orthogonalLoop=1;jettySize=auto;html=1;exitX=0.25;exitY=1;exitDx=0;exitDy=0;entryX=0.344;entryY=-0.008;entryDx=0;entryDy=0;entryPerimeter=0;" parent="1" source="z1FZ_uWKLZuKiR85j3LB-36" target="z1FZ_uWKLZuKiR85j3LB-29" edge="1">
          <mxGeometry relative="1" as="geometry" />
        </mxCell>
        <mxCell id="XFgReOqQZzmoqpLfbUj9-1" value="Docker Compose" style="image;sketch=0;aspect=fixed;html=1;points=[];align=center;fontSize=12;image=img/lib/mscae/Docker.svg;" parent="1" vertex="1">
          <mxGeometry x="1340" y="120" width="50" height="41" as="geometry" />
        </mxCell>
        <mxCell id="XFgReOqQZzmoqpLfbUj9-2" value="Docker Compose" style="image;sketch=0;aspect=fixed;html=1;points=[];align=center;fontSize=12;image=img/lib/mscae/Docker.svg;" parent="1" vertex="1">
          <mxGeometry x="1960" y="470" width="49.99" height="41" as="geometry" />
        </mxCell>
        <mxCell id="komrigK7Vt0HTuFKPwD9-8" value="components" parent="0" />
        <mxCell id="tRZuRNDx-DWkK2Ab4mDl-3" value="Docker Compose" style="image;sketch=0;aspect=fixed;html=1;points=[];align=center;fontSize=12;image=img/lib/mscae/Docker.svg;" parent="komrigK7Vt0HTuFKPwD9-8" vertex="1">
          <mxGeometry x="730" y="820" width="50" height="41" as="geometry" />
        </mxCell>
        <mxCell id="tRZuRNDx-DWkK2Ab4mDl-4" value="MongoDB&lt;div&gt;(Puerto: 27011)&lt;/div&gt;" style="rounded=0;whiteSpace=wrap;html=1;fillColor=#b1ddf0;strokeColor=#10739e;verticalAlign=top;" parent="komrigK7Vt0HTuFKPwD9-8" vertex="1">
          <mxGeometry x="700" y="480" width="130" height="130" as="geometry" />
        </mxCell>
        <mxCell id="tRZuRNDx-DWkK2Ab4mDl-5" value="Mongo Express&lt;div&gt;(Puerto: 8081)&lt;/div&gt;" style="rounded=0;whiteSpace=wrap;html=1;fillColor=#b1ddf0;strokeColor=#10739e;" parent="komrigK7Vt0HTuFKPwD9-8" vertex="1">
          <mxGeometry x="890" y="810" width="100" height="90" as="geometry" />
        </mxCell>
        <mxCell id="tRZuRNDx-DWkK2Ab4mDl-6" value="MinIO API&lt;div&gt;(Puerto: 9000)&lt;/div&gt;" style="rounded=0;whiteSpace=wrap;html=1;fillColor=#b1ddf0;strokeColor=#10739e;verticalAlign=top;" parent="komrigK7Vt0HTuFKPwD9-8" vertex="1">
          <mxGeometry x="1090" y="460" width="135" height="130" as="geometry" />
        </mxCell>
        <mxCell id="tRZuRNDx-DWkK2Ab4mDl-7" value="MinIO UI&lt;div&gt;(Puerto: 9001)&lt;/div&gt;" style="rounded=0;whiteSpace=wrap;html=1;fillColor=#b1ddf0;strokeColor=#10739e;" parent="komrigK7Vt0HTuFKPwD9-8" vertex="1">
          <mxGeometry x="1140" y="810" width="100" height="90" as="geometry" />
        </mxCell>
        <mxCell id="tRZuRNDx-DWkK2Ab4mDl-8" value="Mailpit SMTP&lt;div&gt;(Puerto: 1025)&lt;/div&gt;" style="rounded=0;whiteSpace=wrap;html=1;fillColor=#b1ddf0;strokeColor=#10739e;verticalAlign=top;" parent="komrigK7Vt0HTuFKPwD9-8" vertex="1">
          <mxGeometry x="930" y="460" width="133.86" height="130" as="geometry" />
        </mxCell>
        <mxCell id="tRZuRNDx-DWkK2Ab4mDl-9" value="Mailpit UI&lt;div&gt;(Puerto: 8025)&lt;/div&gt;" style="rounded=0;whiteSpace=wrap;html=1;fillColor=#b1ddf0;strokeColor=#10739e;" parent="komrigK7Vt0HTuFKPwD9-8" vertex="1">
          <mxGeometry x="1015" y="810" width="100" height="90" as="geometry" />
        </mxCell>
        <mxCell id="tRZuRNDx-DWkK2Ab4mDl-14" value="Express" style="shape=image;verticalLabelPosition=bottom;labelBackgroundColor=default;verticalAlign=top;aspect=fixed;imageAspect=0;image=https://upload.wikimedia.org/wikipedia/commons/6/64/Expressjs.png;" parent="komrigK7Vt0HTuFKPwD9-8" vertex="1">
          <mxGeometry x="880" y="126.44" width="135.6" height="41.12" as="geometry" />
        </mxCell>
        <mxCell id="tRZuRNDx-DWkK2Ab4mDl-15" value="DiceBear&lt;br&gt;&lt;div&gt;(Puerto: 3000&lt;span style=&quot;background-color: transparent; color: light-dark(rgb(0, 0, 0), rgb(255, 255, 255));&quot;&gt;)&lt;/span&gt;&lt;/div&gt;" style="rounded=0;whiteSpace=wrap;html=1;fillColor=#b1ddf0;strokeColor=#10739e;verticalAlign=top;" parent="komrigK7Vt0HTuFKPwD9-8" vertex="1">
          <mxGeometry x="1020" y="610" width="100" height="90" as="geometry" />
        </mxCell>
        <mxCell id="tRZuRNDx-DWkK2Ab4mDl-16" value="Vite SPA&lt;br&gt;Puerto: 8083" style="rounded=0;whiteSpace=wrap;html=1;fillColor=#fad7ac;strokeColor=#b46504;" parent="komrigK7Vt0HTuFKPwD9-8" vertex="1">
          <mxGeometry x="440" y="107.56" width="120" height="60" as="geometry" />
        </mxCell>
        <mxCell id="tRZuRNDx-DWkK2Ab4mDl-17" value="Express API&lt;br&gt;Puerto: 8082" style="rounded=0;whiteSpace=wrap;html=1;fillColor=#b0e3e6;strokeColor=#0e8088;" parent="komrigK7Vt0HTuFKPwD9-8" vertex="1">
          <mxGeometry x="1075" y="107.56" width="120" height="60" as="geometry" />
        </mxCell>
        <mxCell id="tRZuRNDx-DWkK2Ab4mDl-25" value="React" style="shape=image;verticalLabelPosition=bottom;labelBackgroundColor=default;verticalAlign=top;aspect=fixed;imageAspect=0;image=https://upload.wikimedia.org/wikipedia/commons/thumb/a/a7/React-icon.svg/512px-React-icon.svg.png;" parent="komrigK7Vt0HTuFKPwD9-8" vertex="1">
          <mxGeometry x="130" y="117.43" width="66.4" height="59.14" as="geometry" />
        </mxCell>
        <mxCell id="tRZuRNDx-DWkK2Ab4mDl-26" value="Vite.js" style="shape=image;verticalLabelPosition=bottom;labelBackgroundColor=default;verticalAlign=top;aspect=fixed;imageAspect=0;image=https://upload.wikimedia.org/wikipedia/commons/thumb/f/f1/Vitejs-logo.svg/410px-Vitejs-logo.svg.png;" parent="komrigK7Vt0HTuFKPwD9-8" vertex="1">
          <mxGeometry x="220" y="116.55" width="58.3" height="57.45" as="geometry" />
        </mxCell>
        <mxCell id="tRZuRNDx-DWkK2Ab4mDl-27" value="Flask API&lt;br&gt;Puerto: 9020" style="rounded=0;whiteSpace=wrap;html=1;fillColor=#b0e3e6;strokeColor=#0e8088;" parent="komrigK7Vt0HTuFKPwD9-8" vertex="1">
          <mxGeometry x="1710" y="90" width="120" height="60" as="geometry" />
        </mxCell>
        <mxCell id="tRZuRNDx-DWkK2Ab4mDl-67" style="edgeStyle=orthogonalEdgeStyle;rounded=0;orthogonalLoop=1;jettySize=auto;html=1;exitX=0.96;exitY=0.7;exitDx=0;exitDy=0;exitPerimeter=0;entryX=0;entryY=0.25;entryDx=0;entryDy=0;" parent="komrigK7Vt0HTuFKPwD9-8" source="tRZuRNDx-DWkK2Ab4mDl-28" target="tRZuRNDx-DWkK2Ab4mDl-63" edge="1">
          <mxGeometry relative="1" as="geometry" />
        </mxCell>
        <mxCell id="tRZuRNDx-DWkK2Ab4mDl-68" value="Envía comandos" style="edgeLabel;html=1;align=center;verticalAlign=middle;resizable=0;points=[];" parent="tRZuRNDx-DWkK2Ab4mDl-67" vertex="1" connectable="0">
          <mxGeometry x="0.2324" y="3" relative="1" as="geometry">
            <mxPoint x="19" y="-12" as="offset" />
          </mxGeometry>
        </mxCell>
        <mxCell id="tRZuRNDx-DWkK2Ab4mDl-28" value="" style="ellipse;shape=cloud;whiteSpace=wrap;html=1;fillColor=none;" parent="komrigK7Vt0HTuFKPwD9-8" vertex="1">
          <mxGeometry x="1360" y="490" width="190" height="190" as="geometry" />
        </mxCell>
        <mxCell id="tRZuRNDx-DWkK2Ab4mDl-38" value="Telegram Bot" style="shape=image;verticalLabelPosition=bottom;labelBackgroundColor=default;verticalAlign=top;aspect=fixed;imageAspect=0;image=https://upload.wikimedia.org/wikipedia/commons/thumb/8/82/Telegram_logo.svg/512px-Telegram_logo.svg.png;" parent="komrigK7Vt0HTuFKPwD9-8" vertex="1">
          <mxGeometry x="1415.73" y="540" width="72" height="72" as="geometry" />
        </mxCell>
        <mxCell id="tRZuRNDx-DWkK2Ab4mDl-40" value="https://t.me/platform_connect_bot" style="text;html=1;align=center;verticalAlign=middle;whiteSpace=wrap;rounded=0;fillColor=#d0cee2;strokeColor=#56517e;" parent="komrigK7Vt0HTuFKPwD9-8" vertex="1">
          <mxGeometry x="1360" y="680" width="199" height="30" as="geometry" />
        </mxCell>
        <mxCell id="tRZuRNDx-DWkK2Ab4mDl-42" value="Python" style="shape=image;verticalLabelPosition=bottom;labelBackgroundColor=default;verticalAlign=top;aspect=fixed;imageAspect=0;image=https://brandslogos.com/wp-content/uploads/images/large/python-logo.png;" parent="komrigK7Vt0HTuFKPwD9-8" vertex="1">
          <mxGeometry x="1450" y="121.52" width="47.7" height="47.5" as="geometry" />
        </mxCell>
        <mxCell id="tRZuRNDx-DWkK2Ab4mDl-44" value="Flask" style="shape=image;verticalLabelPosition=bottom;labelBackgroundColor=default;verticalAlign=top;aspect=fixed;imageAspect=0;image=https://user-images.githubusercontent.com/51070104/268566349-c41e65a5-2ab9-4b54-8cbc-350ab6da746c.png;" parent="komrigK7Vt0HTuFKPwD9-8" vertex="1">
          <mxGeometry x="1530" y="113.22" width="85.48" height="64.11" as="geometry" />
        </mxCell>
        <mxCell id="tRZuRNDx-DWkK2Ab4mDl-46" value="" style="strokeWidth=2;html=1;shape=mxgraph.flowchart.database;whiteSpace=wrap;fillColor=none;" parent="komrigK7Vt0HTuFKPwD9-8" vertex="1">
          <mxGeometry x="1730.55" y="287" width="99.45" height="90" as="geometry" />
        </mxCell>
        <mxCell id="tRZuRNDx-DWkK2Ab4mDl-49" value="" style="edgeStyle=orthogonalEdgeStyle;rounded=0;orthogonalLoop=1;jettySize=auto;html=1;entryX=0.4;entryY=0.1;entryDx=0;entryDy=0;entryPerimeter=0;" parent="komrigK7Vt0HTuFKPwD9-8" source="tRZuRNDx-DWkK2Ab4mDl-48" target="tRZuRNDx-DWkK2Ab4mDl-28" edge="1">
          <mxGeometry relative="1" as="geometry" />
        </mxCell>
        <mxCell id="tRZuRNDx-DWkK2Ab4mDl-70" value="Envía mensaje" style="edgeLabel;html=1;align=center;verticalAlign=middle;resizable=0;points=[];" parent="tRZuRNDx-DWkK2Ab4mDl-49" vertex="1" connectable="0">
          <mxGeometry x="-0.3437" relative="1" as="geometry">
            <mxPoint as="offset" />
          </mxGeometry>
        </mxCell>
        <mxCell id="tRZuRNDx-DWkK2Ab4mDl-115" style="edgeStyle=orthogonalEdgeStyle;rounded=0;orthogonalLoop=1;jettySize=auto;html=1;exitX=0;exitY=0.75;exitDx=0;exitDy=0;entryX=1;entryY=0.75;entryDx=0;entryDy=0;" parent="komrigK7Vt0HTuFKPwD9-8" source="tRZuRNDx-DWkK2Ab4mDl-48" target="tRZuRNDx-DWkK2Ab4mDl-73" edge="1">
          <mxGeometry relative="1" as="geometry" />
        </mxCell>
        <mxCell id="tRZuRNDx-DWkK2Ab4mDl-48" value="Routes" style="rounded=0;whiteSpace=wrap;html=1;fillColor=#b0e3e6;strokeColor=#0e8088;" parent="komrigK7Vt0HTuFKPwD9-8" vertex="1">
          <mxGeometry x="1480" y="240" width="120" height="60" as="geometry" />
        </mxCell>
        <mxCell id="tRZuRNDx-DWkK2Ab4mDl-59" value="Python" style="shape=image;verticalLabelPosition=bottom;labelBackgroundColor=default;verticalAlign=top;aspect=fixed;imageAspect=0;image=https://brandslogos.com/wp-content/uploads/images/large/python-logo.png;" parent="komrigK7Vt0HTuFKPwD9-8" vertex="1">
          <mxGeometry x="2080" y="460" width="47.7" height="47.5" as="geometry" />
        </mxCell>
        <mxCell id="tRZuRNDx-DWkK2Ab4mDl-60" value="" style="strokeWidth=2;html=1;shape=mxgraph.flowchart.database;whiteSpace=wrap;fillColor=none;" parent="komrigK7Vt0HTuFKPwD9-8" vertex="1">
          <mxGeometry x="2120.28" y="632.46" width="99.45" height="90" as="geometry" />
        </mxCell>
        <mxCell id="tRZuRNDx-DWkK2Ab4mDl-69" style="edgeStyle=orthogonalEdgeStyle;rounded=0;orthogonalLoop=1;jettySize=auto;html=1;exitX=0.5;exitY=0;exitDx=0;exitDy=0;entryX=1;entryY=0.5;entryDx=0;entryDy=0;" parent="komrigK7Vt0HTuFKPwD9-8" source="tRZuRNDx-DWkK2Ab4mDl-62" target="tRZuRNDx-DWkK2Ab4mDl-48" edge="1">
          <mxGeometry relative="1" as="geometry" />
        </mxCell>
        <mxCell id="tRZuRNDx-DWkK2Ab4mDl-71" value="Recibe heartbeat" style="edgeLabel;html=1;align=center;verticalAlign=middle;resizable=0;points=[];" parent="tRZuRNDx-DWkK2Ab4mDl-69" vertex="1" connectable="0">
          <mxGeometry x="0.841" relative="1" as="geometry">
            <mxPoint as="offset" />
          </mxGeometry>
        </mxCell>
        <mxCell id="tRZuRNDx-DWkK2Ab4mDl-62" value="jobs" style="rounded=0;whiteSpace=wrap;html=1;fillColor=#b0e3e6;strokeColor=#0e8088;" parent="komrigK7Vt0HTuFKPwD9-8" vertex="1">
          <mxGeometry x="2110" y="550" width="120" height="60" as="geometry" />
        </mxCell>
        <mxCell id="tRZuRNDx-DWkK2Ab4mDl-63" value="commands" style="rounded=0;whiteSpace=wrap;html=1;fillColor=#b0e3e6;strokeColor=#0e8088;" parent="komrigK7Vt0HTuFKPwD9-8" vertex="1">
          <mxGeometry x="1934.2799999999997" y="640" width="120" height="60" as="geometry" />
        </mxCell>
        <mxCell id="tRZuRNDx-DWkK2Ab4mDl-65" value="" style="edgeStyle=orthogonalEdgeStyle;rounded=0;orthogonalLoop=1;jettySize=auto;html=1;entryX=0.875;entryY=0.5;entryDx=0;entryDy=0;entryPerimeter=0;" parent="komrigK7Vt0HTuFKPwD9-8" source="tRZuRNDx-DWkK2Ab4mDl-64" target="tRZuRNDx-DWkK2Ab4mDl-28" edge="1">
          <mxGeometry relative="1" as="geometry" />
        </mxCell>
        <mxCell id="tRZuRNDx-DWkK2Ab4mDl-66" value="Se conecta con token" style="edgeLabel;html=1;align=center;verticalAlign=middle;resizable=0;points=[];" parent="tRZuRNDx-DWkK2Ab4mDl-65" vertex="1" connectable="0">
          <mxGeometry x="-0.0457" y="-1" relative="1" as="geometry">
            <mxPoint x="-2" y="-24" as="offset" />
          </mxGeometry>
        </mxCell>
        <mxCell id="tRZuRNDx-DWkK2Ab4mDl-64" value="setup" style="rounded=0;whiteSpace=wrap;html=1;fillColor=#b0e3e6;strokeColor=#0e8088;" parent="komrigK7Vt0HTuFKPwD9-8" vertex="1">
          <mxGeometry x="1934.2799999999997" y="550" width="120" height="60" as="geometry" />
        </mxCell>
        <mxCell id="tRZuRNDx-DWkK2Ab4mDl-74" value="" style="edgeStyle=orthogonalEdgeStyle;rounded=0;orthogonalLoop=1;jettySize=auto;html=1;" parent="komrigK7Vt0HTuFKPwD9-8" source="tRZuRNDx-DWkK2Ab4mDl-72" target="tRZuRNDx-DWkK2Ab4mDl-73" edge="1">
          <mxGeometry relative="1" as="geometry" />
        </mxCell>
        <mxCell id="tRZuRNDx-DWkK2Ab4mDl-102" style="edgeStyle=orthogonalEdgeStyle;rounded=0;orthogonalLoop=1;jettySize=auto;html=1;exitX=0;exitY=0.75;exitDx=0;exitDy=0;entryX=1;entryY=0.75;entryDx=0;entryDy=0;" parent="komrigK7Vt0HTuFKPwD9-8" source="tRZuRNDx-DWkK2Ab4mDl-72" target="tRZuRNDx-DWkK2Ab4mDl-96" edge="1">
          <mxGeometry relative="1" as="geometry" />
        </mxCell>
        <mxCell id="tRZuRNDx-DWkK2Ab4mDl-72" value="Routes" style="rounded=0;whiteSpace=wrap;html=1;fillColor=#b0e3e6;strokeColor=#0e8088;" parent="komrigK7Vt0HTuFKPwD9-8" vertex="1">
          <mxGeometry x="730" y="230" width="120" height="60" as="geometry" />
        </mxCell>
        <mxCell id="tRZuRNDx-DWkK2Ab4mDl-106" style="edgeStyle=orthogonalEdgeStyle;rounded=0;orthogonalLoop=1;jettySize=auto;html=1;exitX=0;exitY=0.75;exitDx=0;exitDy=0;entryX=1;entryY=0.75;entryDx=0;entryDy=0;" parent="komrigK7Vt0HTuFKPwD9-8" source="tRZuRNDx-DWkK2Ab4mDl-73" target="tRZuRNDx-DWkK2Ab4mDl-72" edge="1">
          <mxGeometry relative="1" as="geometry" />
        </mxCell>
        <mxCell id="tRZuRNDx-DWkK2Ab4mDl-108" style="edgeStyle=orthogonalEdgeStyle;rounded=0;orthogonalLoop=1;jettySize=auto;html=1;exitX=1;exitY=0.5;exitDx=0;exitDy=0;entryX=0;entryY=0.5;entryDx=0;entryDy=0;" parent="komrigK7Vt0HTuFKPwD9-8" source="tRZuRNDx-DWkK2Ab4mDl-73" target="tRZuRNDx-DWkK2Ab4mDl-48" edge="1">
          <mxGeometry relative="1" as="geometry" />
        </mxCell>
        <mxCell id="tRZuRNDx-DWkK2Ab4mDl-73" value="Controllers" style="rounded=0;whiteSpace=wrap;html=1;fillColor=#b0e3e6;strokeColor=#0e8088;" parent="komrigK7Vt0HTuFKPwD9-8" vertex="1">
          <mxGeometry x="1005" y="240" width="120" height="60" as="geometry" />
        </mxCell>
        <mxCell id="tRZuRNDx-DWkK2Ab4mDl-77" value="Usuario Admin" style="html=1;verticalLabelPosition=bottom;align=center;labelBackgroundColor=#ffffff;verticalAlign=top;strokeWidth=2;strokeColor=#0080F0;shadow=0;dashed=0;shape=mxgraph.ios7.icons.user;" parent="komrigK7Vt0HTuFKPwD9-8" vertex="1">
          <mxGeometry x="1060" y="1000" width="80" height="80" as="geometry" />
        </mxCell>
        <mxCell id="tRZuRNDx-DWkK2Ab4mDl-83" value="" style="edgeStyle=orthogonalEdgeStyle;rounded=0;orthogonalLoop=1;jettySize=auto;html=1;entryX=0.427;entryY=0.933;entryDx=0;entryDy=0;entryPerimeter=0;" parent="komrigK7Vt0HTuFKPwD9-8" source="tRZuRNDx-DWkK2Ab4mDl-81" target="tRZuRNDx-DWkK2Ab4mDl-40" edge="1">
          <mxGeometry relative="1" as="geometry" />
        </mxCell>
        <mxCell id="tRZuRNDx-DWkK2Ab4mDl-85" value="Se registra e interactúa" style="edgeLabel;html=1;align=center;verticalAlign=middle;resizable=0;points=[];" parent="tRZuRNDx-DWkK2Ab4mDl-83" vertex="1" connectable="0">
          <mxGeometry x="-0.4784" relative="1" as="geometry">
            <mxPoint as="offset" />
          </mxGeometry>
        </mxCell>
        <mxCell id="tRZuRNDx-DWkK2Ab4mDl-81" value="*Usuario" style="html=1;verticalLabelPosition=bottom;align=center;labelBackgroundColor=#ffffff;verticalAlign=top;strokeWidth=2;strokeColor=#0080F0;shadow=0;dashed=0;shape=mxgraph.ios7.icons.user;" parent="komrigK7Vt0HTuFKPwD9-8" vertex="1">
          <mxGeometry x="1411.73" y="870" width="80" height="80" as="geometry" />
        </mxCell>
        <mxCell id="tRZuRNDx-DWkK2Ab4mDl-98" style="edgeStyle=orthogonalEdgeStyle;rounded=0;orthogonalLoop=1;jettySize=auto;html=1;exitX=1;exitY=0.5;exitDx=0;exitDy=0;entryX=0;entryY=0.5;entryDx=0;entryDy=0;" parent="komrigK7Vt0HTuFKPwD9-8" source="tRZuRNDx-DWkK2Ab4mDl-94" target="tRZuRNDx-DWkK2Ab4mDl-95" edge="1">
          <mxGeometry relative="1" as="geometry" />
        </mxCell>
        <mxCell id="tRZuRNDx-DWkK2Ab4mDl-94" value="Pages" style="rounded=0;whiteSpace=wrap;html=1;fillColor=#fad7ac;strokeColor=#b46504;" parent="komrigK7Vt0HTuFKPwD9-8" vertex="1">
          <mxGeometry x="60" y="230" width="120" height="60" as="geometry" />
        </mxCell>
        <mxCell id="tRZuRNDx-DWkK2Ab4mDl-99" style="edgeStyle=orthogonalEdgeStyle;rounded=0;orthogonalLoop=1;jettySize=auto;html=1;exitX=1;exitY=0.5;exitDx=0;exitDy=0;entryX=0;entryY=0.5;entryDx=0;entryDy=0;" parent="komrigK7Vt0HTuFKPwD9-8" source="tRZuRNDx-DWkK2Ab4mDl-95" target="tRZuRNDx-DWkK2Ab4mDl-96" edge="1">
          <mxGeometry relative="1" as="geometry" />
        </mxCell>
        <mxCell id="tRZuRNDx-DWkK2Ab4mDl-105" style="edgeStyle=orthogonalEdgeStyle;rounded=0;orthogonalLoop=1;jettySize=auto;html=1;exitX=0;exitY=0.75;exitDx=0;exitDy=0;entryX=1;entryY=0.75;entryDx=0;entryDy=0;" parent="komrigK7Vt0HTuFKPwD9-8" source="tRZuRNDx-DWkK2Ab4mDl-95" target="tRZuRNDx-DWkK2Ab4mDl-94" edge="1">
          <mxGeometry relative="1" as="geometry" />
        </mxCell>
        <mxCell id="tRZuRNDx-DWkK2Ab4mDl-95" value="Components" style="rounded=0;whiteSpace=wrap;html=1;fillColor=#fad7ac;strokeColor=#b46504;" parent="komrigK7Vt0HTuFKPwD9-8" vertex="1">
          <mxGeometry x="220" y="230" width="120" height="60" as="geometry" />
        </mxCell>
        <mxCell id="tRZuRNDx-DWkK2Ab4mDl-100" style="edgeStyle=orthogonalEdgeStyle;rounded=0;orthogonalLoop=1;jettySize=auto;html=1;exitX=1;exitY=0.5;exitDx=0;exitDy=0;entryX=0;entryY=0.5;entryDx=0;entryDy=0;" parent="komrigK7Vt0HTuFKPwD9-8" source="tRZuRNDx-DWkK2Ab4mDl-96" target="tRZuRNDx-DWkK2Ab4mDl-72" edge="1">
          <mxGeometry relative="1" as="geometry" />
        </mxCell>
        <mxCell id="tRZuRNDx-DWkK2Ab4mDl-104" style="edgeStyle=orthogonalEdgeStyle;rounded=0;orthogonalLoop=1;jettySize=auto;html=1;exitX=0;exitY=0.75;exitDx=0;exitDy=0;entryX=1;entryY=0.75;entryDx=0;entryDy=0;" parent="komrigK7Vt0HTuFKPwD9-8" source="tRZuRNDx-DWkK2Ab4mDl-96" target="tRZuRNDx-DWkK2Ab4mDl-95" edge="1">
          <mxGeometry relative="1" as="geometry" />
        </mxCell>
        <mxCell id="tRZuRNDx-DWkK2Ab4mDl-121" style="edgeStyle=orthogonalEdgeStyle;rounded=0;orthogonalLoop=1;jettySize=auto;html=1;exitX=0.5;exitY=1;exitDx=0;exitDy=0;entryX=0;entryY=0.5;entryDx=0;entryDy=0;" parent="komrigK7Vt0HTuFKPwD9-8" source="tRZuRNDx-DWkK2Ab4mDl-96" target="tRZuRNDx-DWkK2Ab4mDl-15" edge="1">
          <mxGeometry relative="1" as="geometry" />
        </mxCell>
        <mxCell id="tRZuRNDx-DWkK2Ab4mDl-96" value="Services" style="rounded=0;whiteSpace=wrap;html=1;fillColor=#fad7ac;strokeColor=#b46504;" parent="komrigK7Vt0HTuFKPwD9-8" vertex="1">
          <mxGeometry x="390" y="230" width="120" height="60" as="geometry" />
        </mxCell>
        <mxCell id="tRZuRNDx-DWkK2Ab4mDl-120" value="React Redux" style="shape=image;verticalLabelPosition=bottom;labelBackgroundColor=default;verticalAlign=top;aspect=fixed;imageAspect=0;image=https://react-redux.js.org/img/redux.svg;" parent="komrigK7Vt0HTuFKPwD9-8" vertex="1">
          <mxGeometry x="300" y="108.67" width="65.33" height="65.33" as="geometry" />
        </mxCell>
        <mxCell id="tRZuRNDx-DWkK2Ab4mDl-122" style="edgeStyle=orthogonalEdgeStyle;rounded=0;orthogonalLoop=1;jettySize=auto;html=1;exitX=0;exitY=0.25;exitDx=0;exitDy=0;entryX=0.808;entryY=1;entryDx=0;entryDy=0;entryPerimeter=0;" parent="komrigK7Vt0HTuFKPwD9-8" source="tRZuRNDx-DWkK2Ab4mDl-15" target="tRZuRNDx-DWkK2Ab4mDl-96" edge="1">
          <mxGeometry relative="1" as="geometry" />
        </mxCell>
        <mxCell id="tRZuRNDx-DWkK2Ab4mDl-123" style="edgeStyle=orthogonalEdgeStyle;rounded=0;orthogonalLoop=1;jettySize=auto;html=1;exitX=0;exitY=0.75;exitDx=0;exitDy=0;" parent="komrigK7Vt0HTuFKPwD9-8" edge="1">
          <mxGeometry relative="1" as="geometry">
            <mxPoint x="1934.2799999999997" y="672.96" as="sourcePoint" />
            <mxPoint x="1520" y="640" as="targetPoint" />
          </mxGeometry>
        </mxCell>
        <mxCell id="tRZuRNDx-DWkK2Ab4mDl-124" value="Procesa y responde" style="edgeLabel;html=1;align=center;verticalAlign=middle;resizable=0;points=[];" parent="tRZuRNDx-DWkK2Ab4mDl-123" vertex="1" connectable="0">
          <mxGeometry x="-0.2744" relative="1" as="geometry">
            <mxPoint x="-2" y="12" as="offset" />
          </mxGeometry>
        </mxCell>
        <mxCell id="tRZuRNDx-DWkK2Ab4mDl-125" style="edgeStyle=orthogonalEdgeStyle;rounded=0;orthogonalLoop=1;jettySize=auto;html=1;" parent="komrigK7Vt0HTuFKPwD9-8" source="tRZuRNDx-DWkK2Ab4mDl-128" edge="1">
          <mxGeometry relative="1" as="geometry">
            <mxPoint x="244.99999999999997" y="700" as="targetPoint" />
          </mxGeometry>
        </mxCell>
        <mxCell id="tRZuRNDx-DWkK2Ab4mDl-126" style="edgeStyle=orthogonalEdgeStyle;rounded=0;orthogonalLoop=1;jettySize=auto;html=1;" parent="komrigK7Vt0HTuFKPwD9-8" source="tRZuRNDx-DWkK2Ab4mDl-128" edge="1">
          <mxGeometry relative="1" as="geometry">
            <mxPoint x="370" y="720" as="targetPoint" />
          </mxGeometry>
        </mxCell>
        <mxCell id="tRZuRNDx-DWkK2Ab4mDl-127" style="edgeStyle=orthogonalEdgeStyle;rounded=0;orthogonalLoop=1;jettySize=auto;html=1;" parent="komrigK7Vt0HTuFKPwD9-8" source="tRZuRNDx-DWkK2Ab4mDl-128" edge="1">
          <mxGeometry relative="1" as="geometry">
            <mxPoint x="129.99999999999997" y="700" as="targetPoint" />
          </mxGeometry>
        </mxCell>
        <mxCell id="tRZuRNDx-DWkK2Ab4mDl-128" value="Usuario" style="html=1;verticalLabelPosition=bottom;align=center;labelBackgroundColor=#ffffff;verticalAlign=top;strokeWidth=2;strokeColor=#0080F0;shadow=0;dashed=0;shape=mxgraph.ios7.icons.user;" parent="komrigK7Vt0HTuFKPwD9-8" vertex="1">
          <mxGeometry x="216.61999999999998" y="810" width="80" height="80" as="geometry" />
        </mxCell>
        <mxCell id="tRZuRNDx-DWkK2Ab4mDl-129" value="" style="edgeStyle=orthogonalEdgeStyle;rounded=0;orthogonalLoop=1;jettySize=auto;html=1;" parent="komrigK7Vt0HTuFKPwD9-8" source="tRZuRNDx-DWkK2Ab4mDl-130" edge="1">
          <mxGeometry relative="1" as="geometry">
            <mxPoint x="249.99999999999997" y="550" as="targetPoint" />
          </mxGeometry>
        </mxCell>
        <mxCell id="tRZuRNDx-DWkK2Ab4mDl-130" value="Tableta" style="verticalLabelPosition=bottom;html=1;verticalAlign=top;align=center;shape=mxgraph.azure.tablet;pointerEvents=1;" parent="komrigK7Vt0HTuFKPwD9-8" vertex="1">
          <mxGeometry x="199.99999999999997" y="602" width="90" height="70" as="geometry" />
        </mxCell>
        <mxCell id="tRZuRNDx-DWkK2Ab4mDl-131" style="edgeStyle=orthogonalEdgeStyle;rounded=0;orthogonalLoop=1;jettySize=auto;html=1;exitX=0.5;exitY=0;exitDx=0;exitDy=0;exitPerimeter=0;" parent="komrigK7Vt0HTuFKPwD9-8" source="tRZuRNDx-DWkK2Ab4mDl-132" edge="1">
          <mxGeometry relative="1" as="geometry">
            <mxPoint x="290" y="540" as="targetPoint" />
            <mxPoint x="369" y="582" as="sourcePoint" />
            <Array as="points">
              <mxPoint x="369" y="580" />
              <mxPoint x="291" y="580" />
            </Array>
          </mxGeometry>
        </mxCell>
        <mxCell id="tRZuRNDx-DWkK2Ab4mDl-132" value="Computadora Personal" style="shape=mxgraph.signs.tech.computer;html=1;pointerEvents=1;verticalLabelPosition=bottom;verticalAlign=top;align=center;" parent="komrigK7Vt0HTuFKPwD9-8" vertex="1">
          <mxGeometry x="320" y="602" width="98" height="98" as="geometry" />
        </mxCell>
        <mxCell id="tRZuRNDx-DWkK2Ab4mDl-133" style="edgeStyle=orthogonalEdgeStyle;rounded=0;orthogonalLoop=1;jettySize=auto;html=1;" parent="komrigK7Vt0HTuFKPwD9-8" source="tRZuRNDx-DWkK2Ab4mDl-134" edge="1">
          <mxGeometry relative="1" as="geometry">
            <mxPoint x="189.99999999999997" y="540" as="targetPoint" />
            <Array as="points">
              <mxPoint x="139.99999999999997" y="570" />
              <mxPoint x="190.99999999999997" y="570" />
            </Array>
          </mxGeometry>
        </mxCell>
        <mxCell id="tRZuRNDx-DWkK2Ab4mDl-134" value="Teléfono Inteligente" style="html=1;verticalLabelPosition=bottom;align=center;labelBackgroundColor=#ffffff;verticalAlign=top;strokeWidth=2;shadow=0;dashed=0;shape=mxgraph.ios7.icons.smartphone;" parent="komrigK7Vt0HTuFKPwD9-8" vertex="1">
          <mxGeometry x="119.99999999999997" y="602" width="40" height="70" as="geometry" />
        </mxCell>
        <mxCell id="tRZuRNDx-DWkK2Ab4mDl-135" value="Navegador Web" style="sketch=0;pointerEvents=1;shadow=0;dashed=0;html=1;aspect=fixed;labelPosition=center;verticalLabelPosition=bottom;verticalAlign=top;align=center;outlineConnect=0;shape=mxgraph.vvd.web_browser;" parent="komrigK7Vt0HTuFKPwD9-8" vertex="1">
          <mxGeometry x="193.23999999999998" y="440" width="112.68" height="80" as="geometry" />
        </mxCell>
        <mxCell id="l9qfeFunxGHHDh1IlJqD-2" value="Node.js" style="shape=image;verticalLabelPosition=bottom;labelBackgroundColor=default;verticalAlign=top;aspect=fixed;imageAspect=0;image=https://upload.wikimedia.org/wikipedia/commons/thumb/d/d9/Node.js_logo.svg/1024px-Node.js_logo.svg.png;" parent="komrigK7Vt0HTuFKPwD9-8" vertex="1">
          <mxGeometry x="774" y="130.13" width="75.72" height="46.44" as="geometry" />
        </mxCell>
        <mxCell id="l9qfeFunxGHHDh1IlJqD-3" value="" style="shape=image;verticalLabelPosition=bottom;labelBackgroundColor=default;verticalAlign=top;aspect=fixed;imageAspect=0;image=https://upload.wikimedia.org/wikipedia/commons/thumb/3/38/SQLite370.svg/1024px-SQLite370.svg.png;" parent="komrigK7Vt0HTuFKPwD9-8" vertex="1">
          <mxGeometry x="1732.14" y="320" width="97.86" height="46.35" as="geometry" />
        </mxCell>
        <mxCell id="l9qfeFunxGHHDh1IlJqD-4" value="" style="shape=image;verticalLabelPosition=bottom;labelBackgroundColor=default;verticalAlign=top;aspect=fixed;imageAspect=0;image=https://upload.wikimedia.org/wikipedia/commons/thumb/3/38/SQLite370.svg/1024px-SQLite370.svg.png;" parent="komrigK7Vt0HTuFKPwD9-8" vertex="1">
          <mxGeometry x="2121.07" y="663.65" width="97.86" height="46.35" as="geometry" />
        </mxCell>
        <mxCell id="z1FZ_uWKLZuKiR85j3LB-11" style="edgeStyle=orthogonalEdgeStyle;rounded=0;orthogonalLoop=1;jettySize=auto;html=1;exitX=0.5;exitY=1;exitDx=0;exitDy=0;" parent="komrigK7Vt0HTuFKPwD9-8" edge="1">
          <mxGeometry relative="1" as="geometry">
            <mxPoint x="280" y="440" as="targetPoint" />
            <mxPoint x="279.5" y="380" as="sourcePoint" />
          </mxGeometry>
        </mxCell>
        <mxCell id="z1FZ_uWKLZuKiR85j3LB-13" value="" style="edgeStyle=orthogonalEdgeStyle;rounded=0;orthogonalLoop=1;jettySize=auto;html=1;entryX=0.37;entryY=1;entryDx=0;entryDy=0;entryPerimeter=0;" parent="komrigK7Vt0HTuFKPwD9-8" source="tRZuRNDx-DWkK2Ab4mDl-135" edge="1">
          <mxGeometry relative="1" as="geometry">
            <mxPoint x="239.58" y="379.5" as="targetPoint" />
            <mxPoint x="259.58" y="439.5" as="sourcePoint" />
          </mxGeometry>
        </mxCell>
        <mxCell id="z1FZ_uWKLZuKiR85j3LB-40" style="edgeStyle=orthogonalEdgeStyle;rounded=0;orthogonalLoop=1;jettySize=auto;html=1;exitX=0.25;exitY=1;exitDx=0;exitDy=0;entryX=0.25;entryY=0;entryDx=0;entryDy=0;" parent="komrigK7Vt0HTuFKPwD9-8" source="z1FZ_uWKLZuKiR85j3LB-14" target="tRZuRNDx-DWkK2Ab4mDl-4" edge="1">
          <mxGeometry relative="1" as="geometry" />
        </mxCell>
        <mxCell id="z1FZ_uWKLZuKiR85j3LB-14" value="Models&lt;div&gt;(Mongoose ODM)&lt;/div&gt;" style="rounded=0;whiteSpace=wrap;html=1;fillColor=#b0e3e6;strokeColor=#0e8088;" parent="komrigK7Vt0HTuFKPwD9-8" vertex="1">
          <mxGeometry x="728" y="308.35" width="120" height="60" as="geometry" />
        </mxCell>
        <mxCell id="z1FZ_uWKLZuKiR85j3LB-15" value="" style="shape=image;verticalLabelPosition=bottom;labelBackgroundColor=default;verticalAlign=top;aspect=fixed;imageAspect=0;image=https://upload.wikimedia.org/wikipedia/en/thumb/5/5a/MongoDB_Fores-Green.svg/1024px-MongoDB_Fores-Green.svg.png;" parent="komrigK7Vt0HTuFKPwD9-8" vertex="1">
          <mxGeometry x="732.66" y="556" width="74.2" height="18.77" as="geometry" />
        </mxCell>
        <mxCell id="z1FZ_uWKLZuKiR85j3LB-16" value="" style="strokeWidth=2;html=1;shape=mxgraph.flowchart.database;whiteSpace=wrap;fillColor=none;" parent="komrigK7Vt0HTuFKPwD9-8" vertex="1">
          <mxGeometry x="730" y="520" width="77.72" height="80" as="geometry" />
        </mxCell>
        <mxCell id="z1FZ_uWKLZuKiR85j3LB-20" value="" style="strokeWidth=2;html=1;shape=mxgraph.flowchart.database;whiteSpace=wrap;fillColor=none;" parent="komrigK7Vt0HTuFKPwD9-8" vertex="1">
          <mxGeometry x="1120" y="502.46000000000004" width="77.72" height="80" as="geometry" />
        </mxCell>
        <mxCell id="z1FZ_uWKLZuKiR85j3LB-21" value="" style="shape=image;verticalLabelPosition=bottom;labelBackgroundColor=default;verticalAlign=top;aspect=fixed;imageAspect=0;image=https://min.io/resources/img/logo.svg;" parent="komrigK7Vt0HTuFKPwD9-8" vertex="1">
          <mxGeometry x="1128.39" y="546.75" width="60.61" height="9.09" as="geometry" />
        </mxCell>
        <mxCell id="z1FZ_uWKLZuKiR85j3LB-24" value="" style="strokeWidth=2;html=1;shape=mxgraph.flowchart.database;whiteSpace=wrap;fillColor=none;" parent="komrigK7Vt0HTuFKPwD9-8" vertex="1">
          <mxGeometry x="958.0699999999999" y="507" width="77.72" height="80" as="geometry" />
        </mxCell>
        <mxCell id="z1FZ_uWKLZuKiR85j3LB-25" value="" style="shape=image;verticalLabelPosition=bottom;labelBackgroundColor=default;verticalAlign=top;aspect=fixed;imageAspect=0;image=https://upload.wikimedia.org/wikipedia/commons/thumb/3/38/SQLite370.svg/1024px-SQLite370.svg.png;" parent="komrigK7Vt0HTuFKPwD9-8" vertex="1">
          <mxGeometry x="960.93" y="541.89" width="73.86" height="34.98" as="geometry" />
        </mxCell>
        <mxCell id="z1FZ_uWKLZuKiR85j3LB-41" style="edgeStyle=orthogonalEdgeStyle;rounded=0;orthogonalLoop=1;jettySize=auto;html=1;exitX=0.75;exitY=0;exitDx=0;exitDy=0;entryX=0.658;entryY=0.978;entryDx=0;entryDy=0;entryPerimeter=0;" parent="komrigK7Vt0HTuFKPwD9-8" source="tRZuRNDx-DWkK2Ab4mDl-4" target="z1FZ_uWKLZuKiR85j3LB-14" edge="1">
          <mxGeometry relative="1" as="geometry" />
        </mxCell>
        <mxCell id="z1FZ_uWKLZuKiR85j3LB-46" style="edgeStyle=orthogonalEdgeStyle;rounded=0;orthogonalLoop=1;jettySize=auto;html=1;exitX=0.5;exitY=1;exitDx=0;exitDy=0;entryX=0.263;entryY=0.025;entryDx=0;entryDy=0;entryPerimeter=0;" parent="komrigK7Vt0HTuFKPwD9-8" source="z1FZ_uWKLZuKiR85j3LB-29" target="tRZuRNDx-DWkK2Ab4mDl-77" edge="1">
          <mxGeometry relative="1" as="geometry" />
        </mxCell>
        <mxCell id="z1FZ_uWKLZuKiR85j3LB-47" style="edgeStyle=orthogonalEdgeStyle;rounded=0;orthogonalLoop=1;jettySize=auto;html=1;entryX=0.6;entryY=1;entryDx=0;entryDy=0;entryPerimeter=0;" parent="komrigK7Vt0HTuFKPwD9-8" source="tRZuRNDx-DWkK2Ab4mDl-77" target="z1FZ_uWKLZuKiR85j3LB-29" edge="1">
          <mxGeometry relative="1" as="geometry" />
        </mxCell>
        <mxCell id="z1FZ_uWKLZuKiR85j3LB-50" value="" style="endArrow=classic;html=1;rounded=0;entryX=0.5;entryY=0;entryDx=0;entryDy=0;exitX=0.358;exitY=0.983;exitDx=0;exitDy=0;exitPerimeter=0;" parent="komrigK7Vt0HTuFKPwD9-8" source="tRZuRNDx-DWkK2Ab4mDl-73" target="tRZuRNDx-DWkK2Ab4mDl-8" edge="1">
          <mxGeometry relative="1" as="geometry">
            <mxPoint x="915.6" y="410" as="sourcePoint" />
            <mxPoint x="1015.6" y="410" as="targetPoint" />
          </mxGeometry>
        </mxCell>
        <mxCell id="z1FZ_uWKLZuKiR85j3LB-51" value="" style="shape=message;html=1;outlineConnect=0;" parent="z1FZ_uWKLZuKiR85j3LB-50" vertex="1">
          <mxGeometry width="20" height="14" relative="1" as="geometry">
            <mxPoint x="-10" y="-7" as="offset" />
          </mxGeometry>
        </mxCell>
        <mxCell id="z1FZ_uWKLZuKiR85j3LB-54" style="edgeStyle=orthogonalEdgeStyle;rounded=0;orthogonalLoop=1;jettySize=auto;html=1;exitX=0.75;exitY=1;exitDx=0;exitDy=0;entryX=1.003;entryY=0.538;entryDx=0;entryDy=0;entryPerimeter=0;" parent="komrigK7Vt0HTuFKPwD9-8" source="tRZuRNDx-DWkK2Ab4mDl-40" target="tRZuRNDx-DWkK2Ab4mDl-81" edge="1">
          <mxGeometry relative="1" as="geometry">
            <Array as="points">
              <mxPoint x="1509" y="790" />
              <mxPoint x="1540" y="790" />
              <mxPoint x="1540" y="913" />
            </Array>
          </mxGeometry>
        </mxCell>
        <mxCell id="z1FZ_uWKLZuKiR85j3LB-55" value="Responde y notifica" style="edgeLabel;html=1;align=center;verticalAlign=middle;resizable=0;points=[];" parent="z1FZ_uWKLZuKiR85j3LB-54" vertex="1" connectable="0">
          <mxGeometry x="0.3538" y="4" relative="1" as="geometry">
            <mxPoint as="offset" />
          </mxGeometry>
        </mxCell>
        <mxCell id="z1FZ_uWKLZuKiR85j3LB-56" value="Comentario: En esta arquitectura se hace uso de REST API con el protocolo HTTP y JSON como formato de intercambio." style="rounded=0;whiteSpace=wrap;html=1;fillColor=#fff2cc;strokeColor=#d6b656;" parent="komrigK7Vt0HTuFKPwD9-8" vertex="1">
          <mxGeometry x="30" y="20" width="390" height="60" as="geometry" />
        </mxCell>
        <mxCell id="z1FZ_uWKLZuKiR85j3LB-59" value="" style="shape=image;verticalLabelPosition=bottom;labelBackgroundColor=default;verticalAlign=top;aspect=fixed;imageAspect=0;image=https://publicapi.dev/images/logos/avatars.dicebear.com.png;" parent="komrigK7Vt0HTuFKPwD9-8" vertex="1">
          <mxGeometry x="1052.57" y="652.5600000000001" width="34.87" height="34.87" as="geometry" />
        </mxCell>
      </root>
    </mxGraphModel>
  </diagram>
</mxfile>
